<svg width="50" height="50" xmlns="http://www.w3.org/2000/svg">

 <g>
  <title>background</title>
  <rect fill="none" id="canvas_background" height="402" width="582" y="-1" x="-1"/>
 </g>
 <g>
  <title>Layer 1</title>
  <path fill="#ffffff" id="svg_1" d="m0.892983,39.224017l29,0l0,9.766l6,-3.6l6,3.6l0,-9.766l7,0l0,-38l-48,0l0,38zm39.265,-6.786c-0.09,0.091 -0.186,0.175 -0.281,0.26c-0.054,0.048 -0.104,0.099 -0.16,0.145c-0.062,0.052 -0.128,0.096 -0.192,0.145c-0.843,0.645 -1.859,1.074 -2.968,1.197c-0.018,0.002 -0.036,0.006 -0.055,0.008c-0.201,0.02 -0.405,0.031 -0.611,0.031s-0.41,-0.011 -0.611,-0.031c-0.018,-0.002 -0.036,-0.006 -0.055,-0.008c-1.109,-0.123 -2.124,-0.552 -2.968,-1.197c-0.064,-0.049 -0.13,-0.094 -0.192,-0.145c-0.055,-0.046 -0.106,-0.097 -0.16,-0.145c-0.095,-0.085 -0.19,-0.169 -0.281,-0.26c-1.071,-1.084 -1.735,-2.572 -1.735,-4.214c0,-3.309 2.691,-6 6,-6s6,2.691 6,6c0.004,1.641 -0.659,3.129 -1.731,4.214zm-0.265,13.02l-4,-2.4l-4,2.4l0,-6.234l0,-4.07c0.034,0.02 0.072,0.033 0.107,0.052c0.265,0.148 0.538,0.284 0.82,0.402c0.012,0.005 0.025,0.009 0.038,0.014c0.937,0.386 1.961,0.602 3.036,0.602s2.099,-0.216 3.036,-0.602c0.012,-0.005 0.025,-0.009 0.038,-0.014c0.282,-0.118 0.555,-0.253 0.82,-0.402c0.035,-0.019 0.073,-0.032 0.107,-0.052l0,4.07l0,6.234l-0.002,0zm-37,-42.234l44,0l0,34l-5,0l0,-3.726c1.241,-1.41 2,-3.253 2,-5.274c0,-4.411 -3.589,-8 -8,-8s-8,3.589 -8,8c0,2.021 0.759,3.864 2,5.274l0,3.726l-27,0l0,-34z"/>
  <rect fill="#0090ff" id="svg_2" y="7.117" x="12" width="26" height="2"/>
  <rect fill="#0090ff" id="svg_3" y="13.117" x="17" width="16" height="2"/>
  <rect fill="#0090ff" id="svg_4" y="31.117" x="7" width="11" height="2"/>
 </g>
</svg>