<svg width="50" height="50" xmlns="http://www.w3.org/2000/svg">

 <g>
  <title>background</title>
  <rect fill="none" id="canvas_background" height="402" width="582" y="-1" x="-1"/>
 </g>
 <g>
  <title>Layer 1</title>
  <path fill="#ffffff" id="svg_1" d="m25,1c-13.233,0 -24,10.767 -24,24s10.767,24 24,24s24,-10.767 24,-24s-10.767,-24 -24,-24zm0,46c-12.131,0 -22,-9.869 -22,-22s9.869,-22 22,-22s22,9.869 22,22s-9.869,22 -22,22z"/>
  <path fill="#0090ff" id="svg_2" d="m23,13l4,0c2.757,0 5,2.243 5,5l2,0c0,-3.86 -3.141,-7 -7,-7l-1,0l0,-3l-2,0l0,3l-1,0c-3.859,0 -7,3.14 -7,7l0,1c0,3.86 3.141,7 7,7l4,0c2.757,0 5,2.243 5,5l0,1c0,2.757 -2.243,5 -5,5l-4,0c-2.757,0 -5,-2.243 -5,-5l-2,0c0,3.86 3.141,7 7,7l1,0l0,3l2,0l0,-3l1,0c3.859,0 7,-3.14 7,-7l0,-1c0,-3.86 -3.141,-7 -7,-7l-4,0c-2.757,0 -5,-2.243 -5,-5l0,-1c0,-2.757 2.243,-5 5,-5z"/>
 </g>
</svg>