<svg width="50" height="50" xmlns="http://www.w3.org/2000/svg">

 <g>
  <title>background</title>
  <rect fill="none" id="canvas_background" height="402" width="582" y="-1" x="-1"/>
 </g>
 <g>
  <title>Layer 1</title>
  <path fill="#ffffff" id="svg_1" d="m24.883179,1c-2.872,0 -5.68,0.502 -8.348,1.492l0.696,1.875c2.444,-0.907 5.019,-1.367 7.652,-1.367c12.131,0 22,9.869 22,22s-9.869,22 -22,22s-22,-9.869 -22,-22c0,-6.595 2.963,-12.795 8,-16.958l0,6.958l2,0l0,-10l-10,0l0,2l6.126,0c-5.133,4.53 -8.126,11.068 -8.126,18c0,13.233 10.767,24 24,24s24,-10.767 24,-24s-10.767,-24 -24,-24z"/>
  <path fill="#0090ff" id="svg_2" d="m19,33l-2,0l0,2l16,0l0,-2l-2,0l0,-3.414l-4.586,-4.586l4.586,-4.586l0,-3.414l2,0l0,-2l-16,0l0,2l2,0l0,3.414l4.586,4.586l-4.586,4.586l0,3.414zm2,-13.414l0,-2.586l8,0l0,2.586l-4,4l-4,-4zm4,6.828l4,4l0,2.586l-8,0l0,-2.586l4,-4z"/>
  <rect fill="#0090ff" id="svg_3" y="39" x="19" width="2" height="2"/>
  <rect fill="#0090ff" id="svg_4" y="39" x="23.883179" width="2" height="2"/>
  <rect fill="#0090ff" id="svg_5" y="39" x="28.883179" width="2" height="2"/>
 </g>
</svg>