<svg xmlns="http://www.w3.org/2000/svg" width="54.125" height="88.987" viewBox="0 0 54.125 88.987"><defs><style>.a{fill:#fff;}.b{fill:#1d8cf8;}</style></defs><g transform="translate(-5361.415 -1998.717)"><g transform="translate(5361.415 1998.717)"><path class="a" d="M48.786,0H5.339A5.345,5.345,0,0,0,0,5.339V27.445a1.3,1.3,0,0,0,2.61,0V5.339A2.732,2.732,0,0,1,5.339,2.61H48.786a2.732,2.732,0,0,1,2.729,2.729V83.648a2.732,2.732,0,0,1-2.729,2.729H5.339A2.732,2.732,0,0,1,2.61,83.648V33.418a1.3,1.3,0,0,0-2.61,0v50.23a5.345,5.345,0,0,0,5.339,5.339H48.786a5.345,5.345,0,0,0,5.339-5.339V5.339A5.345,5.345,0,0,0,48.786,0Zm0,0" transform="translate(0)"/><path class="a" d="M43.03,33.735a2.172,2.172,0,0,0-1.8-.95H36.165a2.816,2.816,0,0,0-2.821,2.8v71.983a2.816,2.816,0,0,0,2.821,2.8H56.938a1.3,1.3,0,0,0,0-2.61H36.165a.2.2,0,0,1-.212-.194V35.589a.2.2,0,0,1,.212-.194H41l2.05,3.006a2.174,2.174,0,0,0,1.8.949H64.372a2.174,2.174,0,0,0,1.8-.95l2.049-3.006h4.839a.2.2,0,0,1,.212.194v71.983a.2.2,0,0,1-.212.194H62.984a1.3,1.3,0,0,0,0,2.61H73.058a2.816,2.816,0,0,0,2.821-2.8V35.589a2.816,2.816,0,0,0-2.821-2.8H67.989a2.174,2.174,0,0,0-1.8.95l-2.05,3.006H45.08Zm0,0" transform="translate(-27.549 -27.087)"/><path class="a" d="M114.156,28.789a1.578,1.578,0,1,1-1.578-1.578A1.579,1.579,0,0,1,114.156,28.789Zm0,0" transform="translate(-91.708 -22.482)"/><path class="a" d="M147.493,31.394a1.3,1.3,0,1,0,0-2.609h-9.829a1.3,1.3,0,0,0,0,2.609Zm0,0" transform="translate(-112.66 -23.782)"/><path class="b" d="M101.027,266.734H104.2v3.174h-3.175Zm0,0" transform="translate(-83.468 -220.375)"/><path class="b" d="M190.785,266.734h3.175v3.174h-3.175Zm0,0" transform="translate(-157.626 -220.375)"/><path class="b" d="M82.567,314.11h-1a1.3,1.3,0,0,1,0-2.61h1a1.3,1.3,0,1,1,0,2.61Zm0,0" transform="translate(-66.309 -257.361)"/><path class="a" d="M221.8,388.7a1.3,1.3,0,0,0-1.3,1.3v1.806h-1.806a1.3,1.3,0,1,0,0,2.61H221.8a1.3,1.3,0,0,0,1.3-1.3v-3.111A1.305,1.305,0,0,0,221.8,388.7Zm0,0" transform="translate(-179.601 -321.145)"/><path class="a" d="M65.537,391.814H63.731v-1.806a1.3,1.3,0,0,0-2.61,0v3.111a1.3,1.3,0,0,0,1.3,1.3h3.111a1.3,1.3,0,1,0,0-2.61Zm0,0" transform="translate(-50.498 -321.146)"/><path class="a" d="M221.8,218.145h-3.111a1.3,1.3,0,1,0,0,2.609h1.806v1.807a1.3,1.3,0,1,0,2.61,0V219.45A1.3,1.3,0,0,0,221.8,218.145Zm0,0" transform="translate(-179.601 -180.231)"/><path class="a" d="M62.426,223.866a1.3,1.3,0,0,0,1.3-1.3v-1.807h1.806a1.3,1.3,0,1,0,0-2.609H62.426a1.3,1.3,0,0,0-1.3,1.3v3.111a1.305,1.305,0,0,0,1.3,1.3Zm0,0" transform="translate(-50.498 -180.231)"/><path class="b" d="M79.691,246.7v7.981a1.3,1.3,0,0,0,1.3,1.3h7.981a1.3,1.3,0,0,0,1.3-1.3V246.7a1.3,1.3,0,0,0-1.3-1.3H81A1.305,1.305,0,0,0,79.691,246.7ZM82.3,248h5.372v5.372H82.3Zm0,0" transform="translate(-65.841 -202.744)"/><path class="b" d="M170.754,255.986h7.981a1.3,1.3,0,0,0,1.3-1.3V246.7a1.3,1.3,0,0,0-1.3-1.3h-7.981a1.305,1.305,0,0,0-1.3,1.3v7.981A1.3,1.3,0,0,0,170.754,255.986Zm1.3-7.981h5.372v5.372h-5.372Zm0,0" transform="translate(-139.998 -202.744)"/><path class="b" d="M121.858,264.962h2.974a1.3,1.3,0,1,0,0-2.609h-1.669V246.7a1.3,1.3,0,1,0-2.609,0v10.184H116.1a1.3,1.3,0,0,0,0,2.609h4.449v4.164A1.3,1.3,0,0,0,121.858,264.962Zm0,0" transform="translate(-94.848 -202.745)"/><path class="b" d="M164.047,312.805a1.3,1.3,0,0,0-1.3-1.3h-4.224a1.3,1.3,0,0,0-1.3,1.3v10.488h-6.1a1.3,1.3,0,1,0,0,2.609h7.4a1.3,1.3,0,0,0,1.3-1.3V314.109h2.919A1.3,1.3,0,0,0,164.047,312.805Zm0,0" transform="translate(-123.772 -257.361)"/><path class="b" d="M216.676,333.43a1.3,1.3,0,0,0-1.3,1.3v1.657a1.3,1.3,0,0,0,2.61,0v-1.657A1.3,1.3,0,0,0,216.676,333.43Zm0,0" transform="translate(-177.939 -275.479)"/><path class="b" d="M216.676,374.144a1.3,1.3,0,0,0,1.3-1.3V371.2a1.3,1.3,0,0,0-2.61,0v1.644A1.3,1.3,0,0,0,216.676,374.144Zm0,0" transform="translate(-177.939 -305.602)"/><path class="b" d="M88.978,333.43H81a1.3,1.3,0,0,0-1.3,1.3v7.982a1.3,1.3,0,0,0,1.3,1.3h7.981a1.3,1.3,0,0,0,1.3-1.3v-7.982A1.3,1.3,0,0,0,88.978,333.43Zm-1.3,7.981H82.3v-5.372h5.372Zm0,0" transform="translate(-65.841 -275.479)"/><path class="b" d="M101.027,354.766H104.2v3.174h-3.175Zm0,0" transform="translate(-83.468 -293.107)"/><path class="b" d="M171.4,322.7a1.232,1.232,0,0,1-.254-.026,1.3,1.3,0,0,1-.47-.195,1.225,1.225,0,0,1-.2-.162,1.2,1.2,0,0,1-.162-.2,1.287,1.287,0,0,1-.119-.224,1.346,1.346,0,0,1-.075-.245,1.277,1.277,0,0,1-.026-.254,1.317,1.317,0,0,1,.383-.924,1.436,1.436,0,0,1,.2-.162,1.27,1.27,0,0,1,.469-.193,1.3,1.3,0,0,1,1.559,1.279,1.228,1.228,0,0,1-.024.254,1.293,1.293,0,0,1-.075.245,1.341,1.341,0,0,1-.12.224,1.271,1.271,0,0,1-.162.2A1.313,1.313,0,0,1,171.4,322.7Zm0,0" transform="translate(-140.531 -264.455)"/><path class="a" d="M117.973,104.73h19.856a1.3,1.3,0,1,0,0-2.609H117.973a1.3,1.3,0,1,0,0,2.609Zm0,0" transform="translate(-96.391 -84.372)"/><path class="a" d="M66.8,104.73h2.762a1.3,1.3,0,1,0,0-2.609H66.8a1.3,1.3,0,1,0,0,2.609Zm0,0" transform="translate(-54.109 -84.372)"/><path class="a" d="M196.956,149.785h-7.417a1.3,1.3,0,0,0,0,2.61h7.417a1.3,1.3,0,0,0,0-2.61Zm0,0" transform="translate(-155.519 -123.752)"/><path class="a" d="M83.457,151.09a1.305,1.305,0,0,0-1.3-1.3H66.8a1.3,1.3,0,1,0,0,2.61H82.152A1.305,1.305,0,0,0,83.457,151.09Zm0,0" transform="translate(-54.11 -123.752)"/><path class="a" d="M175.456,179.469h-11.94a1.3,1.3,0,1,0,0,2.61h11.94a1.3,1.3,0,1,0,0-2.61Zm0,0" transform="translate(-134.018 -148.277)"/><path class="a" d="M77.692,179.469H66.8a1.3,1.3,0,1,0,0,2.61H77.692a1.3,1.3,0,1,0,0-2.61Zm0,0" transform="translate(-54.11 -148.277)"/></g></g></svg>