<svg xmlns="http://www.w3.org/2000/svg" width="59.502" height="89.079" viewBox="0 0 59.502 89.079"><defs><style>.a{fill:#fff;}.b{fill:#1d8cf8;}</style></defs><g transform="translate(-276 -1681.625)"><g transform="translate(276.789 1681.625)"><path class="a" d="M49.538,0H17.732A9.185,9.185,0,0,0,8.557,9.176V43.467H1.74a1.74,1.74,0,0,0,0,3.48H8.557V79.9a9.185,9.185,0,0,0,9.175,9.175H49.538A9.185,9.185,0,0,0,58.713,79.9v-8.03a1.74,1.74,0,1,0-3.48,0v1.018a5.7,5.7,0,0,1-5.7,5.7H17.732a5.7,5.7,0,0,1-5.7-5.7V46.946H22.2l-3.273,2.8a1.74,1.74,0,0,0,2.261,2.645l6.855-5.861a1.758,1.758,0,0,0,0-2.644l-6.855-5.861a1.74,1.74,0,1,0-2.261,2.645l3.273,2.8H12.037V16.187a5.7,5.7,0,0,1,5.7-5.7H49.538a5.7,5.7,0,0,1,5.7,5.7V58.416a1.74,1.74,0,1,0,3.48,0V9.176A9.186,9.186,0,0,0,49.538,0ZM17.732,82.067H49.538a9.128,9.128,0,0,0,5.692-1.987A5.7,5.7,0,0,1,49.538,85.6H17.732a5.7,5.7,0,0,1-5.691-5.519A9.127,9.127,0,0,0,17.732,82.067ZM49.538,7.012H17.732A9.127,9.127,0,0,0,12.041,9,5.7,5.7,0,0,1,17.732,3.48H49.538A5.7,5.7,0,0,1,55.229,9,9.131,9.131,0,0,0,49.538,7.012Zm0,0" transform="translate(0)"/><path class="a" d="M120.426,176.326a1.74,1.74,0,0,0,1.145.43,1.675,1.675,0,0,0,.232-.016l16.749-2.262a1.739,1.739,0,0,0,1.507-1.724V136.065a1.739,1.739,0,0,0-1.507-1.724L121.8,132.079a1.739,1.739,0,0,0-1.972,1.724v.522h-8.713a1.74,1.74,0,0,0-1.74,1.74v6.259a1.74,1.74,0,0,0,3.48,0V137.8h6.973v33.209h-6.973v-4.749a1.74,1.74,0,0,0-3.48,0v6.489a1.74,1.74,0,0,0,1.74,1.74h8.713v.522A1.74,1.74,0,0,0,120.426,176.326Zm2.885-40.532,13.269,1.792v33.648l-13.269,1.791Zm0,0" transform="translate(-90.349 -109.087)"/><path class="a" d="M197.722,252.263a1.74,1.74,0,1,0,.642-2.112A1.759,1.759,0,0,0,197.722,252.263Zm0,0" transform="translate(-163.216 -206.39)"/><path class="a" d="M320.651,366.4a1.739,1.739,0,1,0-.217,2.2A1.759,1.759,0,0,0,320.651,366.4Zm0,0" transform="translate(-262.231 -302.011)"/></g><rect class="b" width="27.617" height="3.551" rx="1.775" transform="translate(276 1725.082)"/><rect class="b" width="12.625" height="3.551" rx="1.775" transform="matrix(0.766, 0.643, -0.643, 0.766, 296.303, 1718.202)"/><rect class="b" width="12.625" height="3.551" rx="1.775" transform="matrix(0.766, -0.643, 0.643, 0.766, 294.201, 1732.588)"/></g></svg>