<svg xmlns="http://www.w3.org/2000/svg" width="88.486" height="88.486" viewBox="0 0 91.486 91.486"><defs><style>.a{fill:#1d8cf8;}.b{fill:#fff;}</style></defs><g transform="translate(0 0)"><g transform="translate(7.378 19.182)"><path class="a" d="M40,288H53.28v10.329H40Zm0,0" transform="translate(-40 -254.062)"/><path class="a" d="M240,152v5.9a4.432,4.432,0,0,0,4.427,4.427h11.8a4.432,4.432,0,0,0,4.427-4.427V152Zm0,0" transform="translate(-203.111 -143.147)"/><path class="a" d="M277.9,302.756h-2.951A2.954,2.954,0,0,1,272,299.8v-8.853A2.954,2.954,0,0,1,274.951,288H277.9a2.954,2.954,0,0,1,2.951,2.951V299.8A2.954,2.954,0,0,1,277.9,302.756Zm0,0" transform="translate(-229.208 -254.062)"/><path class="a" d="M40,104H53.28v13.28H40Zm0,0" transform="translate(-40 -104)"/></g><path class="b" d="M76.73,78.205A4.432,4.432,0,0,0,72.3,82.632v4.427a1.477,1.477,0,0,1-1.476,1.476H57.547a1.477,1.477,0,0,1-1.476-1.476V82.632A4.432,4.432,0,0,0,60.5,78.205V76.73h.345a4.439,4.439,0,0,0,4.4-3.9l2.5-22.781a7.392,7.392,0,0,0,6.043-7.257V33.938A7.387,7.387,0,0,0,66.4,26.56H50.17V7.378A7.387,7.387,0,0,0,42.792,0H7.378A7.387,7.387,0,0,0,0,7.378V75.254a7.387,7.387,0,0,0,7.378,7.378H42.792a7.375,7.375,0,0,0,6.09-3.224,4.419,4.419,0,0,0,4.239,3.224v4.427a4.432,4.432,0,0,0,4.427,4.427h13.28a4.432,4.432,0,0,0,4.427-4.427V82.632a1.477,1.477,0,0,1,1.476-1.476H91.486V78.205Zm-5.9-44.267v8.853A4.432,4.432,0,0,1,66.4,47.218H47.218v2.951H64.755L62.309,72.486a1.481,1.481,0,0,1-1.465,1.293h-12.5a1.473,1.473,0,0,1-1.461-1.27l-2.772-25.29H42.792a4.432,4.432,0,0,1-4.427-4.427V33.938a4.432,4.432,0,0,1,4.427-4.427H50.17v8.853h2.951V29.511h2.951v8.853h2.951V29.511H66.4a4.432,4.432,0,0,1,4.427,4.427ZM41.316,26.709a7.361,7.361,0,0,0-4.389,2.8H26.56v-5.9H23.609v8.853H35.563a7.385,7.385,0,0,0-.149,1.476v8.853a7.392,7.392,0,0,0,6.043,7.257l1.307,11.926H8.853V20.658H41.316Zm2.951-.149V17.707H5.9V64.925H43.087l.323,2.951H2.951V14.756H47.218v11.8ZM7.378,2.951H42.792a4.432,4.432,0,0,1,4.427,4.427V11.8H2.951V7.378A4.432,4.432,0,0,1,7.378,2.951Zm35.414,76.73H7.378a4.432,4.432,0,0,1-4.427-4.427V70.827H43.735l.221,2.025a4.42,4.42,0,0,0,3.06,3.655,4.419,4.419,0,0,1-4.224,3.174Zm8.853-1.476V76.73h5.9v1.476a1.477,1.477,0,0,1-1.476,1.476H53.121A1.477,1.477,0,0,1,51.645,78.205Zm0,0" transform="translate(0 0)"/><path class="b" d="M272,320h8.853v2.951H272Zm0,0" transform="translate(-221.83 -260.977)"/><path class="b" d="M112,32h8.853v2.951H112Zm0,0" transform="translate(-91.342 -26.098)"/><path class="b" d="M176,32h2.951v2.951H176Zm0,0" transform="translate(-143.537 -26.098)"/><path class="b" d="M80,32h2.951v2.951H80Zm0,0" transform="translate(-65.244 -26.098)"/><path class="b" d="M120,400h5.9v2.951H120Zm0,0" transform="translate(-97.866 -326.221)"/><path class="b" d="M64,304h5.9v2.951H64Zm0,0" transform="translate(-52.195 -247.928)"/><path class="b" d="M72,136h2.951v2.951H72Zm0,0" transform="translate(-58.72 -110.915)"/><path class="b" d="M160,128h8.853v2.951H160Zm0,0" transform="translate(-130.489 -104.391)"/><path class="b" d="M78.756,200.853h-11.8V192H64v11.8H78.756Zm0,0" transform="translate(-52.195 -156.586)"/><path class="b" d="M98.951,194.951h5.9V192H96v5.9h2.951Zm0,0" transform="translate(-78.293 -156.586)"/><path class="b" d="M160,192h2.951v8.853H160Zm0,0" transform="translate(-130.489 -156.586)"/><path class="b" d="M128,304h16.231v2.951H128Zm0,0" transform="translate(-104.391 -247.928)"/><path class="b" d="M160,256h2.951v5.9H160Zm0,0" transform="translate(-130.489 -208.782)"/></g></svg>