<svg xmlns="http://www.w3.org/2000/svg" width="88" height="88.574" viewBox="0 0 93 93.574"><defs><style>.a{fill:#fff;}.b{fill:none;}.c{fill:#81b3e6;}.d{fill:#1d8cf8;}</style></defs><g transform="translate(-5654 -2715)"><path class="a" d="M221.826,333.3a1.818,1.818,0,1,0-2.57,0A1.819,1.819,0,0,0,221.826,333.3Zm0,0" transform="translate(5474.926 2445.347)"/><path class="a" d="M21.424,266.233a1.816,1.816,0,0,0,2.564.015l8.807-8.676a5.489,5.489,0,0,0,1.293-5.637l1.894-1.827a5.417,5.417,0,0,1,3.782-1.528H63.912a16.264,16.264,0,0,0,11.4-4.633c.126-.123-.959,1.155,16.474-19.68a7.266,7.266,0,0,0-11.057-9.431L70.014,225.853a7.3,7.3,0,0,0-5.648-2.7H44.11a23.435,23.435,0,0,0-9.1-1.816c-8.747,0-16.385,4.04-20.483,11.614a5.426,5.426,0,0,0-4.858,1.505L1.031,243.12a1.817,1.817,0,0,0,0,2.562Zm13.59-41.267a19.829,19.829,0,0,1,8,1.664,1.813,1.813,0,0,0,.728.153H64.366a3.633,3.633,0,1,1,0,7.266H49.546a1.816,1.816,0,1,0,0,3.633h14.82a7.255,7.255,0,0,0,7.2-8.215c10.369-10.658,11.831-12.156,11.893-12.231a3.634,3.634,0,1,1,5.547,4.694L72.716,241.406a12.648,12.648,0,0,1-8.8,3.541H39.764a9.031,9.031,0,0,0-6.305,2.547l-1.544,1.49-14.231-14.23c3.326-6.239,9.567-9.788,17.329-9.788ZM12.243,237.02a1.812,1.812,0,0,1,2.249-.256c.314.192-.588-.63,15.733,15.669a1.82,1.82,0,0,1,.01,2.56l-7.508,7.4L4.879,244.405Zm0,0" transform="translate(5653.499 2541.804)"/><g transform="translate(5675.804 2715)"><path class="b" d="M62.923,116H58.239a4.683,4.683,0,1,1-9.367,0H14.683A4.683,4.683,0,0,0,10,120.683V144.1a4.683,4.683,0,0,0,4.683,4.683H48.872a4.683,4.683,0,1,1,9.367,0h4.683a4.683,4.683,0,0,0,4.683-4.683V120.683A4.683,4.683,0,0,0,62.923,116Z" transform="translate(-8.829 -114.829)"/><rect class="c" width="4.683" height="4.683" transform="translate(49.41 10.538)"/><path class="b" d="M0,0H4.683V4.683H0Z" transform="translate(35.36 10.538)"/><g transform="translate(0 0)"><path class="a" d="M54.093,106H49.41a1.171,1.171,0,0,0-1.171,1.171,3.513,3.513,0,1,1-7.025,0A1.171,1.171,0,0,0,40.043,106H5.854A5.861,5.861,0,0,0,0,111.854v23.417a5.861,5.861,0,0,0,5.854,5.854H40.043a1.171,1.171,0,0,0,1.171-1.171,3.513,3.513,0,1,1,7.025,0,1.171,1.171,0,0,0,1.171,1.171h4.683a5.861,5.861,0,0,0,5.854-5.854V111.854A5.861,5.861,0,0,0,54.093,106Zm3.513,29.271a3.517,3.517,0,0,1-3.513,3.513h-3.63a5.855,5.855,0,0,0-11.473,0H5.854a3.517,3.517,0,0,1-3.513-3.513V111.854a3.517,3.517,0,0,1,3.513-3.513H38.99a5.871,5.871,0,0,0,4.566,4.564v1.29a1.171,1.171,0,0,0,2.342,0v-1.29a5.872,5.872,0,0,0,4.566-4.564h3.63a3.517,3.517,0,0,1,3.513,3.513Z" transform="translate(0 -106)"/><path class="a" d="M224.918,186h-3.747a1.171,1.171,0,0,0,0,2.342h3.747a1.171,1.171,0,0,0,0-2.342Z" transform="translate(-194.241 -176.633)"/><path class="a" d="M41.171,188.342H48.2a1.171,1.171,0,0,0,0-2.342H41.171a1.171,1.171,0,1,0,0,2.342Z" transform="translate(-35.317 -176.633)"/><path class="a" d="M141.171,188.342h4.683a1.171,1.171,0,1,0,0-2.342h-4.683a1.171,1.171,0,1,0,0,2.342Z" transform="translate(-123.608 -176.633)"/><path class="a" d="M41.171,228.342h22.48a1.171,1.171,0,0,0,0-2.342H41.171a1.171,1.171,0,0,0,0,2.342Z" transform="translate(-35.317 -211.95)"/><path class="a" d="M41.171,294a1.171,1.171,0,1,0,1.171,1.171A1.173,1.173,0,0,0,41.171,294Z" transform="translate(-35.317 -271.988)"/><path class="a" d="M373.171,246A1.173,1.173,0,0,0,372,247.171v2.342a1.171,1.171,0,0,0,2.342,0v-2.342A1.173,1.173,0,0,0,373.171,246Z" transform="translate(-328.444 -229.608)"/><path class="a" d="M373.171,306a1.171,1.171,0,1,0,1.171,1.171A1.173,1.173,0,0,0,373.171,306Z" transform="translate(-328.444 -282.583)"/><path class="a" d="M373.171,206a1.171,1.171,0,1,0,1.171,1.171A1.173,1.173,0,0,0,373.171,206Z" transform="translate(-328.444 -194.291)"/><path class="d" d="M417.854,186h-4.683A1.171,1.171,0,0,0,412,187.171v4.683a1.171,1.171,0,0,0,1.171,1.171h4.683a1.171,1.171,0,0,0,1.171-1.171v-4.683A1.171,1.171,0,0,0,417.854,186Zm-1.171,4.683h-2.342v-2.342h2.342Z" transform="translate(-363.761 -176.633)"/><path class="a" d="M417.854,266h-4.683a1.171,1.171,0,0,0,0,2.342h4.683a1.171,1.171,0,1,0,0-2.342Z" transform="translate(-363.761 -247.266)"/><path class="a" d="M417.854,306h-4.683a1.171,1.171,0,0,0,0,2.342h4.683a1.171,1.171,0,1,0,0-2.342Z" transform="translate(-363.761 -282.583)"/><path class="d" d="M297.854,186h-4.683A1.171,1.171,0,0,0,292,187.171v4.683a1.171,1.171,0,0,0,1.171,1.171h4.683a1.171,1.171,0,0,0,1.171-1.171v-4.683A1.171,1.171,0,0,0,297.854,186Zm-1.171,4.683h-2.342v-2.342h2.342Z" transform="translate(-257.811 -176.633)"/><path class="a" d="M114.979,264.343A1.171,1.171,0,0,0,113.323,266l1.514,1.514H101.171a1.171,1.171,0,0,0,0,2.342h13.666l-1.514,1.514a1.171,1.171,0,1,0,1.656,1.656l3.513-3.513a1.171,1.171,0,0,0,0-1.656Z" transform="translate(-88.291 -245.501)"/><path class="a" d="M301.171,294a1.171,1.171,0,1,0,1.171,1.171A1.173,1.173,0,0,0,301.171,294Z" transform="translate(-264.874 -271.988)"/></g></g></g></svg>